<?xml version="1.0" encoding="utf-8"?>
<!-- Generator: Adobe Illustrator 27.6.1, SVG Export Plug-In . SVG Version: 6.00 Build 0)  -->
<svg version="1.1" id="Layer_1" xmlns="http://www.w3.org/2000/svg" xmlns:xlink="http://www.w3.org/1999/xlink" x="0px" y="0px"
	 viewBox="0 0 23.9 16.8" style="enable-background:new 0 0 23.9 16.8;" xml:space="preserve">
<style type="text/css">
	.st0{fill:#A8A7A7;fill-opacity:0;}
	.st1{fill:#A8A7A7;fill-opacity:0.85;}
</style>
<g>
	<rect class="st0" width="23.9" height="16.8"/>
	<path class="st1" d="M11.8,9.5c0.3,0,0.6-0.1,0.9-0.4l9.8-8.6c-0.5-0.4-1.1-0.5-2-0.5H3.1c-0.8,0-1.4,0.2-2,0.5l9.8,8.6
		C11.2,9.4,11.5,9.5,11.8,9.5z M0.3,15.3L7.5,8L0.2,1.7C0.1,1.9,0,2.4,0,3v10.8C0,14.4,0.1,14.9,0.3,15.3z M2.8,16.8h18
		c0.7,0,1.3-0.2,1.6-0.4L15,9l-1.4,1.3C13,10.8,12.4,11,11.8,11c-0.6,0-1.2-0.3-1.8-0.8L8.6,9l-7.4,7.4C1.5,16.7,2.1,16.8,2.8,16.8z
		 M23.3,15.3c0.1-0.4,0.3-0.8,0.3-1.4V3c0-0.7-0.1-1.2-0.2-1.4L16.1,8L23.3,15.3z"/>
</g>
</svg>
