<?xml version="1.0" encoding="utf-8"?>
<!-- Generator: Adobe Illustrator 27.6.1, SVG Export Plug-In . SVG Version: 6.00 Build 0)  -->
<svg version="1.1" id="Layer_1" xmlns="http://www.w3.org/2000/svg" xmlns:xlink="http://www.w3.org/1999/xlink" x="0px" y="0px"
	 viewBox="0 0 1070.7 1200" style="enable-background:new 0 0 1070.7 1200;" xml:space="preserve">
<style type="text/css">
	.st0{fill:url(#SVGID_1_);}
	.st1{fill:#A8A7A7;}
	.st2{fill:#FFFFFF;}
</style>
<radialGradient id="SVGID_1_" cx="-697.3889" cy="860.4745" r="125.274" gradientTransform="matrix(0 -8.1319 7.5654 0 -6215.4971 -4493.0537)" gradientUnits="userSpaceOnUse">
	<stop  offset="0" style="stop-color:#FFDD55"/>
	<stop  offset="0.1" style="stop-color:#FFDD55"/>
	<stop  offset="0.5" style="stop-color:#FF543E"/>
	<stop  offset="1" style="stop-color:#C837AB"/>
</radialGradient>
<path class="st0" d="M535.5,70.9c-214.7,0-277.3,0.2-289.7,1.2c-44.1,3.7-71.5,10.6-101.4,25.4c-22.9,11.4-41.2,24.7-59,43.2
	C52.9,174.6,33.1,216.2,26,265.8c-3.5,24.1-4.4,28.9-4.6,151.7c0,40.9,0,94.8,0,167.1c0,214.5,0.2,277.1,1.3,289.3
	c3.5,42.8,10.2,69.8,24.5,99.3c27.2,56.5,79.2,98.9,140.3,114.7c21.2,5.4,44.5,8.5,74.6,9.8c12.7,0.6,142.4,1,272.3,1
	s259.6-0.2,272.1-0.8c34.9-1.5,54.9-4.4,77.3-10.2c61.5-15.8,112.7-57.8,140.3-114.9c13.9-28.7,21-56.9,24.3-97.3
	c0.8-8.9,1-150.1,1-291c0-141.1-0.4-282-1-290.8c-3.3-41.2-10.4-69-24.7-98.3c-11.8-24.1-24.9-42-43.9-60.3
	c-33.9-32.6-75.5-52.2-125.1-59.4c-24.1-3.5-28.7-4.4-151.7-4.6L535.5,70.9L535.5,70.9z"/>
<path class="st1" d="M535.5,70.9c-214.7,0-277.3,0.2-289.7,1.2c-44.1,3.7-71.5,10.6-101.4,25.4c-22.9,11.4-41.2,24.7-59,43.2
	C52.9,174.6,33.1,216.2,26,265.8c-3.5,24.1-4.4,28.9-4.6,151.7c0,40.9,0,94.8,0,167.1c0,214.5,0.2,277.1,1.3,289.3
	c3.5,42.8,10.2,69.8,24.5,99.3c27.2,56.5,79.2,98.9,140.3,114.7c21.2,5.4,44.5,8.5,74.6,9.8c12.7,0.6,142.4,1,272.3,1
	s259.6-0.2,272.1-0.8c34.9-1.5,54.9-4.4,77.3-10.2c61.5-15.8,112.7-57.8,140.3-114.9c13.9-28.7,21-56.9,24.3-97.3
	c0.8-8.9,1-150.1,1-291c0-141.1-0.4-282-1-290.8c-3.3-41.2-10.4-69-24.7-98.3c-11.8-24.1-24.9-42-43.9-60.3
	c-33.9-32.6-75.5-52.2-125.1-59.4c-24.1-3.5-28.7-4.4-151.7-4.6L535.5,70.9L535.5,70.9z"/>
<path class="st2" d="M535.3,205.4c-103.1,0-116,0.4-156.5,2.3s-68,8.3-92.1,17.5c-25.1,9.6-46.1,22.7-67.3,43.7
	s-34.1,42.2-43.7,67.3c-9.4,24.1-15.8,51.7-17.5,92.1c-1.7,40.5-2.3,53.4-2.3,156.5s0.4,116,2.3,156.5s8.3,68,17.5,92.1
	c9.6,25.1,22.7,46.1,43.7,67.3c21,21.2,42.2,34.1,67.3,43.7c24.1,9.4,51.7,15.8,92.1,17.5c40.5,1.9,53.4,2.3,156.5,2.3
	s116-0.4,156.5-2.3c40.5-1.9,68-8.3,92.1-17.5c24.9-9.6,46.1-22.7,67.3-43.7c21.2-21,34.1-42.2,43.7-67.3
	c9.3-24.1,15.8-51.7,17.5-92.1c1.7-40.5,2.3-53.4,2.3-156.5s-0.4-116-2.3-156.5c-1.9-40.5-8.3-68-17.5-92.1
	c-9.6-25.1-22.7-46.1-43.7-67.3C830,247.8,809,234.9,784,225.3c-24.3-9.4-51.8-15.8-92.1-17.5C651.2,205.8,638.3,205.4,535.3,205.4
	L535.3,205.4z M501.2,273.9c10,0,21.4,0,34.1,0c101.4,0,113.3,0.4,153.4,2.1c37,1.7,57,7.9,70.5,13.1c17.7,6.9,30.3,15,43.6,28.3
	c13.3,13.3,21.6,26,28.3,43.6c5.2,13.3,11.4,33.5,13.1,70.5c1.7,40.1,2.1,52,2.1,153.4s-0.4,113.3-2.1,153.4
	c-1.7,37-7.9,57-13.1,70.5c-6.9,17.7-15,30.3-28.3,43.6c-13.3,13.3-25.8,21.6-43.6,28.3c-13.3,5.2-33.5,11.4-70.5,13.1
	c-40.1,1.7-52,2.1-153.4,2.1s-113.3-0.4-153.4-2.1c-37-1.7-57-7.9-70.5-13.1c-17.7-6.9-30.5-15-43.6-28.3
	c-13.1-13.3-21.6-25.8-28.3-43.6c-5.2-13.3-11.4-33.5-13.1-70.5c-1.7-40.1-2.1-52-2.1-153.4s0.4-113.3,2.1-153.4
	c1.7-37,7.9-57,13.1-70.5c6.9-17.7,15-30.5,28.3-43.6c13.3-13.3,26-21.6,43.6-28.3c13.3-5.2,33.5-11.4,70.5-13.1
	C417,274.2,430.5,273.9,501.2,273.9L501.2,273.9z M737.9,336.9c-25.2,0-45.5,20.4-45.5,45.5c0,25.2,20.4,45.5,45.5,45.5
	s45.5-20.4,45.5-45.5l0,0C783.4,357.3,763,336.9,737.9,336.9L737.9,336.9z M535.3,390.1c-107.7,0-194.8,87.3-194.8,194.8
	c0,107.7,87.3,194.8,194.8,194.8c107.7,0,194.8-87.3,194.8-194.8S642.9,390.1,535.3,390.1L535.3,390.1z M535.3,458.5
	c70,0,126.4,56.7,126.4,126.4c0,70-56.7,126.4-126.4,126.4c-70,0-126.4-56.7-126.4-126.4C408.7,515.2,465.4,458.5,535.3,458.5z"/>
</svg>
