<?xml version="1.0" encoding="utf-8"?>
<!-- Generator: Adobe Illustrator 27.6.1, SVG Export Plug-In . SVG Version: 6.00 Build 0)  -->
<svg version="1.1" id="Layer_1" xmlns="http://www.w3.org/2000/svg" xmlns:xlink="http://www.w3.org/1999/xlink" x="0px" y="0px"
	 viewBox="0 0 20.3 19.9" style="enable-background:new 0 0 20.3 19.9;" xml:space="preserve">
<style type="text/css">
	.st0{fill:#A8A7A7;fill-opacity:0;}
	.st1{fill:#A8A7A7;fill-opacity:0.85;}
</style>
<g>
	<rect class="st0" width="20.3" height="19.9"/>
	<path class="st1" d="M19.9,10c0,5.4-4.5,10-10,10c-5.4,0-10-4.5-10-10C0,4.5,4.5,0,10,0C15.4,0,19.9,4.5,19.9,10z M4.8,14.5
		c0,0.4,0.2,0.6,0.6,0.6h9.2c0.4,0,0.6-0.3,0.6-0.6c0-1.1-1.7-4-5.2-4S4.8,13.4,4.8,14.5z M7.4,6.8c0,1.6,1.2,2.8,2.6,2.8
		c1.4,0,2.6-1.2,2.6-2.8c0-1.5-1.2-2.8-2.6-2.8C8.5,4.1,7.4,5.3,7.4,6.8z"/>
</g>
</svg>
